<svg width="100" height="100" viewBox="0 0 100 100" fill="none" xmlns="http://www.w3.org/2000/svg">
<rect width="100" height="100" fill="white"/>
<path d="M56.8311 81.374V54.9169H66.1309C68.7627 54.9169 70.8251 55.5116 72.3181 56.701C73.8112 57.865 74.5577 59.4973 74.5577 61.5976C74.5577 62.8123 74.3046 63.9005 73.7985 64.8621C73.2924 65.7984 72.5839 66.5323 71.6728 67.0637C73.1406 67.6204 74.2287 68.4555 74.9373 69.5689C75.6458 70.6571 76.0001 72.0109 76.0001 73.6305C76.0001 76.0598 75.2283 77.9578 73.6846 79.3243C72.1663 80.6908 70.0533 81.374 67.3456 81.374H56.8311ZM61.7277 76.857H66.966C69.7243 76.857 71.1035 75.7056 71.1035 73.4028C71.1035 72.2893 70.7618 71.4289 70.0786 70.8216C69.4206 70.2142 68.4717 69.9106 67.2317 69.9106H61.7277V76.857ZM61.7277 65.5453H66.3586C67.3709 65.5453 68.168 65.267 68.75 64.7102C69.3574 64.1282 69.661 63.3437 69.661 62.3568C69.661 61.4205 69.3574 60.6993 68.75 60.1932C68.1427 59.6871 67.2697 59.434 66.1309 59.434H61.7277V65.5453Z" fill="black"/>
<path d="M27.3076 81.374V54.9169H44.9963V59.3201H32.2043V65.6212H43.3261V69.9865H32.2043V81.374H27.3076Z" fill="black"/>
<path d="M56.8311 45.5243V19.0672H74.5197V23.4704H61.7277V29.7715H72.8496V34.1367H61.7277V45.5243H56.8311Z" fill="black"/>
<path d="M35.768 46.1317C33.2627 46.1317 31.0485 45.5623 29.1253 44.4236C27.2273 43.2595 25.7469 41.6399 24.6841 39.5649C23.6213 37.4898 23.0898 35.0731 23.0898 32.3148C23.0898 29.5311 23.6213 27.1018 24.6841 25.0267C25.7469 22.9517 27.2273 21.3448 29.1253 20.206C31.0485 19.0419 33.2627 18.4599 35.768 18.4599C38.2986 18.4599 40.5128 19.0419 42.4107 20.206C44.334 21.3448 45.827 22.9517 46.8899 25.0267C47.9527 27.1018 48.4841 29.5311 48.4841 32.3148C48.4841 35.0731 47.94 37.4898 46.8519 39.5649C45.7891 41.6399 44.296 43.2595 42.3728 44.4236C40.4749 45.5623 38.2733 46.1317 35.768 46.1317ZM35.73 41.4248C37.3496 41.4248 38.7288 41.0579 39.8675 40.324C41.0316 39.5649 41.9299 38.502 42.5626 37.1355C43.1952 35.769 43.5115 34.1621 43.5115 32.3148C43.5115 30.4422 43.1952 28.8226 42.5626 27.4561C41.9299 26.0896 41.0316 25.0394 39.8675 24.3055C38.7288 23.5463 37.3496 23.1668 35.73 23.1668C34.1864 23.1668 32.8199 23.5337 31.6305 24.2676C30.4665 25.0014 29.5681 26.0516 28.9355 27.4181C28.3281 28.7846 28.0245 30.4168 28.0245 32.3148C28.0245 34.1874 28.3281 35.807 28.9355 37.1735C29.5681 38.54 30.4665 39.5902 31.6305 40.324C32.8199 41.0579 34.1864 41.4248 35.73 41.4248Z" fill="black"/>
</svg>
